<?xml version="1.0" standalone="no"?>
<!DOCTYPE svg PUBLIC "-//W3C//DTD SVG 20010904//EN"
 "http://www.w3.org/TR/2001/REC-SVG-20010904/DTD/svg10.dtd">
<svg version="1.0" xmlns="http://www.w3.org/2000/svg"
 width="442.000000pt" height="442.000000pt" viewBox="0 0 442.000000 442.000000"
 preserveAspectRatio="xMidYMid meet">
<metadata>
Created by potrace 1.14, written by Peter Selinger 2001-2017
</metadata>
<g transform="translate(0.000000,442.000000) scale(0.100000,-0.100000)"
fill="#000000" stroke="none">
<path d="M2038 4414 c-2 -1 -30 -5 -63 -8 -94 -9 -135 -15 -153 -20 -9 -3 -34
-8 -55 -11 -21 -4 -61 -13 -90 -21 -29 -8 -61 -16 -72 -18 -11 -2 -45 -13 -75
-25 -30 -11 -60 -21 -67 -21 -7 0 -38 -12 -70 -26 -32 -14 -74 -32 -93 -41
-48 -21 -101 -47 -125 -60 -79 -45 -203 -121 -219 -135 -11 -10 -23 -18 -27
-18 -4 0 -14 -6 -21 -13 -7 -7 -22 -19 -34 -27 -96 -68 -305 -271 -384 -375
-30 -38 -60 -76 -69 -82 -8 -7 -11 -13 -7 -13 4 0 1 -7 -6 -15 -27 -30 -50
-65 -75 -112 -9 -18 -20 -33 -25 -33 -4 0 -8 -6 -8 -14 0 -8 -7 -22 -16 -30
-8 -9 -13 -16 -10 -16 4 0 -5 -18 -19 -40 -14 -22 -25 -46 -25 -54 0 -7 -6
-19 -14 -25 -8 -7 -20 -32 -27 -56 -7 -25 -17 -45 -21 -45 -4 0 -7 -3 -6 -7 0
-5 -1 -15 -5 -23 -3 -8 -15 -42 -27 -75 -11 -33 -23 -67 -27 -75 -3 -8 -8 -24
-10 -35 -2 -11 -7 -31 -12 -45 -10 -26 -39 -154 -47 -205 -3 -16 -7 -41 -9
-55 -19 -109 -26 -452 -11 -577 10 -86 37 -238 46 -263 1 -3 2 -8 1 -12 0 -4
4 -20 10 -35 6 -15 13 -41 16 -57 3 -16 10 -41 15 -55 6 -14 10 -32 9 -38 -1
-7 2 -13 7 -13 5 0 13 -15 17 -32 10 -43 8 -36 33 -92 12 -27 22 -51 22 -54 0
-10 94 -190 126 -240 19 -29 34 -57 34 -62 0 -6 4 -10 8 -10 5 0 15 -12 23
-27 8 -15 19 -35 26 -43 7 -8 37 -48 68 -87 31 -40 61 -73 66 -73 6 0 8 -4 5
-8 -5 -9 181 -195 253 -252 24 -19 48 -40 55 -45 30 -28 176 -125 176 -118 0
4 5 0 11 -9 5 -10 16 -18 24 -18 7 0 20 -6 27 -13 7 -7 46 -30 87 -50 41 -21
80 -42 88 -48 7 -6 13 -9 13 -5 0 4 11 -1 25 -10 14 -9 25 -12 25 -8 0 5 4 4
8 -1 10 -15 229 -95 305 -111 4 -1 8 -2 10 -4 1 -1 11 -3 22 -5 11 -2 43 -9
70 -15 28 -6 66 -13 85 -16 19 -3 46 -7 60 -10 74 -13 152 -18 310 -18 237 0
316 9 543 59 25 6 189 55 207 62 8 4 17 7 20 8 44 15 214 88 220 95 11 11 72
40 86 40 8 0 14 4 14 8 0 5 12 14 26 21 36 16 214 134 241 160 12 12 26 21 30
21 5 0 21 15 37 33 16 17 30 30 31 27 4 -6 234 222 235 233 0 4 8 15 18 25 9
10 28 33 42 51 14 18 35 46 48 61 12 15 22 32 22 37 0 5 9 15 19 23 11 7 18
17 16 21 -3 4 2 12 10 19 8 7 15 19 15 26 0 8 5 14 10 14 6 0 10 7 10 15 0 8
5 15 10 15 6 0 10 4 10 10 0 5 13 31 28 57 16 26 29 50 30 53 4 19 18 49 33
70 9 14 17 27 17 30 1 9 14 43 33 89 11 24 19 50 19 57 0 8 5 14 11 14 5 0 8
4 5 8 -2 4 4 26 14 49 10 23 16 44 13 47 -3 2 -1 11 3 18 9 14 9 15 19 62 3
16 8 33 10 37 5 7 17 76 18 97 0 6 4 12 8 12 4 0 7 10 7 23 0 12 3 40 6 62 15
95 20 180 20 335 1 198 -10 316 -39 444 -8 33 -12 63 -9 68 3 4 0 8 -7 8 -7 0
-10 3 -6 6 3 3 1 18 -5 33 -5 14 -12 35 -14 46 -5 26 -40 134 -55 170 -14 35
-13 32 -23 68 -5 15 -12 27 -17 27 -5 0 -8 3 -7 8 1 4 -8 29 -20 56 -12 27
-22 52 -22 57 0 5 -5 9 -12 9 -6 0 -8 3 -5 6 4 4 -2 19 -13 34 -11 15 -17 30
-13 34 3 3 2 6 -4 6 -6 0 -16 14 -23 30 -7 17 -17 30 -23 30 -6 0 -7 3 -4 7 4
3 1 13 -5 21 -7 8 -17 22 -23 32 -21 36 -84 126 -105 147 -11 13 -21 26 -23
30 -8 26 -256 279 -322 328 -21 17 -49 40 -61 51 -13 12 -25 20 -27 18 -2 -2
-14 7 -27 21 -13 14 -29 25 -37 25 -7 0 -13 5 -13 11 0 5 -4 8 -9 5 -5 -4 -11
-2 -13 2 -1 5 -32 26 -68 48 -36 21 -68 43 -72 49 -5 7 -8 7 -8 0 0 -7 -3 -7
-8 0 -4 6 -34 23 -67 38 -33 16 -72 35 -87 43 -15 8 -29 14 -30 14 -2 -1 -16
4 -33 11 -16 7 -33 12 -37 11 -5 -1 -8 3 -8 9 0 5 -4 8 -9 4 -5 -3 -12 -1 -16
5 -3 5 -15 10 -26 10 -10 0 -27 4 -37 9 -20 11 -51 23 -72 27 -24 4 -55 12
-57 14 -2 2 -7 4 -13 5 -5 1 -11 3 -12 5 -2 1 -10 3 -18 5 -8 1 -42 8 -75 15
-33 7 -67 14 -75 15 -8 2 -37 6 -65 9 -27 4 -61 10 -75 13 -25 5 -417 12 -422
7z"/>
</g>
</svg>
